# xmcd CD database file
#
# Track frame offsets:
#	150
#	20704
#	34811
#	65755
#	92112
#	112850
#	126345
#	145881
#	173527
#
# Disc length: 2528 seconds
#
# Revision: 0
# Processed by: cddbd v1.5.2PL0 Copyright (c) Steve Scherf et al.
# Submitted via: CDex 1.70beta2
#
DISCID=7a09de09
DTITLE=Toby Benko - - Homemade -
DYEAR=2008
DGENRE=Blues
TTITLE0=Corrina, Corrina
TTITLE1=Everthing
TTITLE2=Lonely Day
TTITLE3=I'm a Man
TTITLE4=More Love, No more in Hollywood
TTITLE5=The River
TTITLE6=Till I Die
TTITLE7=World War 3
TTITLE8=Dalingi [Darling]
EXTD=YEAR: 2008
EXTT0=
EXTT1=
EXTT2=
EXTT3=
EXTT4=
EXTT5=
EXTT6=
EXTT7=
EXTT8=
PLAYORDER=
